# xmcd
#
# Track frame offsets:
#	150
#	8659
#	24580
#	42554
#	57417
#	77736
#	103690
#	126329
#	143608
#	163312
#	187842
#	206727
#	215949
#	235267
#	255355
#	269160
#
# Disc length: 3773 seconds
#
# Revision: 0
# Processed by: cddbd v1.4PL0 Copyright (c) Steve Scherf et al.
# Submitted via: dBpowerAMP V4.0
#
DISCID=ed0ebb10
DTITLE=Alicia keys - songs in a minor
DYEAR=1900
DGENRE=R&B
TTITLE0=Piano and I
TTITLE1=Girlfriend
TTITLE2=How come you don't call me
TTITLE3=Fallin'
TTITLE4=Troubles
TTITLE5=Rock wit U
TTITLE6=A woman's worth
TTITLE7=Jane Doe
TTITLE8=Goodbye
TTITLE9=The life
TTITLE10=Mr. man
TTITLE11=Never felt this way
TTITLE12=Butterflyz
TTITLE13=Why do i feel so sad
TTITLE14=Caged bird
TTITLE15=
EXTD=
EXTT0=
EXTT1=
EXTT2=
EXTT3=
EXTT4=
EXTT5=
EXTT6=
EXTT7=
EXTT8=
EXTT9=
EXTT10=
EXTT11=
EXTT12=
EXTT13=
EXTT14=
EXTT15=
PLAYORDER=
